<svg width="800" height="520" viewBox="0 0 800 520" fill="none" xmlns="http://www.w3.org/2000/svg">
<rect width="800" height="520" rx="42" fill="#040810"/>
<defs>
<linearGradient id="panel" x1="120" y1="100" x2="640" y2="420" gradientUnits="userSpaceOnUse">
<stop stop-color="#0DCAF0" stop-opacity="0.5"/>
<stop offset="1" stop-color="#061020" stop-opacity="0.3"/>
</linearGradient>
<linearGradient id="scan" x1="160" y1="360" x2="160" y2="160" gradientUnits="userSpaceOnUse">
<stop stop-color="#0DCAF0" stop-opacity="0"/>
<stop offset="1" stop-color="#66F7FF" stop-opacity="0.4"/>
</linearGradient>
</defs>
<rect x="120" y="110" width="560" height="320" rx="28" fill="url(#panel)" stroke="#12213A" stroke-width="2"/>
<rect x="160" y="150" width="480" height="240" rx="24" fill="#040810" stroke="#143254" stroke-width="2"/>
<rect x="200" y="190" width="400" height="32" rx="16" fill="#0DCAF0" fill-opacity="0.6"/>
<rect x="200" y="238" width="320" height="18" rx="9" fill="#0DCAF0" fill-opacity="0.35"/>
<rect x="200" y="270" width="280" height="18" rx="9" fill="#66F7FF" fill-opacity="0.45"/>
<circle cx="560" cy="270" r="68" stroke="#0DCAF0" stroke-opacity="0.35" stroke-width="6" fill="#071223"/>
<circle cx="560" cy="270" r="34" fill="#0DCAF0" fill-opacity="0.45"/>
<path d="M196 330H604" stroke="#0DCAF0" stroke-opacity="0.3" stroke-width="2" stroke-dasharray="12 14" stroke-linecap="round"/>
<rect x="180" y="170" width="40" height="200" rx="20" fill="url(#scan)"/>
<rect x="240" y="170" width="12" height="200" rx="6" fill="#0DCAF0" fill-opacity="0.35"/>
<rect x="264" y="170" width="12" height="200" rx="6" fill="#0DCAF0" fill-opacity="0.2"/>
<rect x="288" y="170" width="12" height="200" rx="6" fill="#0DCAF0" fill-opacity="0.12"/>
<circle cx="320" cy="386" r="10" fill="#0DCAF0" fill-opacity="0.7"/>
<circle cx="356" cy="386" r="6" fill="#0DCAF0" fill-opacity="0.4"/>
<circle cx="392" cy="386" r="4" fill="#66F7FF" fill-opacity="0.4"/>
</svg>
