<svg width="800" height="540" viewBox="0 0 800 540" fill="none" xmlns="http://www.w3.org/2000/svg">
<rect width="800" height="540" rx="48" fill="#05070D"/>
<defs>
<linearGradient id="grad1" x1="120" y1="60" x2="720" y2="460" gradientUnits="userSpaceOnUse">
<stop stop-color="#0DCAF0" stop-opacity="0.9"/>
<stop offset="1" stop-color="#0C1632" stop-opacity="0.2"/>
</linearGradient>
<linearGradient id="grad2" x1="640" y1="120" x2="520" y2="400" gradientUnits="userSpaceOnUse">
<stop stop-color="#66F7FF" stop-opacity="0.8"/>
<stop offset="1" stop-color="#0A1426" stop-opacity="0"/>
</linearGradient>
<linearGradient id="grad3" x1="80" y1="420" x2="340" y2="200" gradientUnits="userSpaceOnUse">
<stop stop-color="#0DCAF0" stop-opacity="0.3"/>
<stop offset="1" stop-color="#091223" stop-opacity="0"/>
</linearGradient>
</defs>
<circle cx="240" cy="160" r="110" fill="url(#grad3)"/>
<circle cx="620" cy="180" r="160" fill="url(#grad2)"/>
<rect x="120" y="160" width="560" height="260" rx="32" fill="url(#grad1)" stroke="#1F2F4D" stroke-width="2"/>
<rect x="160" y="200" width="160" height="180" rx="24" fill="#071021" stroke="#1B2A44" stroke-width="2"/>
<rect x="360" y="200" width="320" height="180" rx="24" fill="#071021" stroke="#1B2A44" stroke-width="2"/>
<rect x="188" y="228" width="24" height="124" rx="12" fill="#0DCAF0"/>
<rect x="408" y="232" width="240" height="32" rx="16" fill="#0DCAF0" fill-opacity="0.7"/>
<rect x="408" y="292" width="208" height="20" rx="10" fill="#0DCAF0" fill-opacity="0.35"/>
<rect x="408" y="332" width="176" height="20" rx="10" fill="#66F7FF" fill-opacity="0.45"/>
<circle cx="220" cy="292" r="40" fill="#0DCAF0" fill-opacity="0.15" stroke="#0DCAF0" stroke-opacity="0.4" stroke-width="6"/>
<circle cx="220" cy="292" r="18" fill="#0DCAF0"/>
<path d="M498 382H650" stroke="#0DCAF0" stroke-opacity="0.5" stroke-width="4" stroke-linecap="round" stroke-dasharray="16 18"/>
<path d="M430 180L370 140" stroke="#66F7FF" stroke-width="3" stroke-linecap="round" stroke-dasharray="10 14"/>
<path d="M520 160L580 120" stroke="#66F7FF" stroke-width="3" stroke-linecap="round" stroke-dasharray="10 14"/>
<path d="M600 340L680 320" stroke="#0DCAF0" stroke-opacity="0.6" stroke-width="3" stroke-linecap="round" stroke-dasharray="12 16"/>
<circle cx="540" cy="408" r="26" fill="#0DCAF0" fill-opacity="0.12" stroke="#0DCAF0" stroke-opacity="0.5" stroke-width="4"/>
<circle cx="540" cy="408" r="10" fill="#0DCAF0"/>
</svg>
